<?xml version="1.0" standalone="no"?>
<!DOCTYPE svg PUBLIC "-//W3C//DTD SVG 20010904//EN"
 "http://www.w3.org/TR/2001/REC-SVG-20010904/DTD/svg10.dtd">
<svg version="1.0" xmlns="http://www.w3.org/2000/svg"
 width="500.000000pt" height="500.000000pt" viewBox="0 0 500.000000 500.000000"
 preserveAspectRatio="xMidYMid meet">

<g transform="translate(0.000000,500.000000) scale(0.100000,-0.100000)"
fill="#000000" stroke="none">
<path d="M2350 3513 c-80 -47 -170 -100 -201 -117 -31 -17 -185 -105 -342
-196 l-287 -165 0 -46 0 -47 85 -51 c47 -28 87 -51 90 -51 3 0 34 -18 70 -40
36 -22 68 -40 72 -40 3 0 14 -6 22 -14 9 -7 45 -29 81 -49 36 -19 90 -50 120
-67 30 -18 75 -44 100 -58 25 -13 51 -30 58 -36 10 -10 13 -98 12 -416 0 -222
-2 -405 -4 -407 -5 -5 -31 10 -403 227 l-123 72 0 204 c0 112 3 204 8 204 4 0
43 -22 87 -48 l80 -48 3 -105 3 -104 83 -47 c46 -27 86 -48 90 -48 9 0 7 383
-2 396 -6 9 -86 57 -262 156 -19 11 -84 49 -146 84 -61 35 -114 64 -118 64 -3
0 -6 -179 -6 -399 0 -449 -9 -403 86 -456 71 -40 207 -119 523 -302 145 -84
268 -153 273 -153 4 0 8 274 8 609 l0 610 -87 47 c-49 26 -99 55 -113 64 -14
10 -47 30 -75 45 -309 174 -347 198 -333 211 7 6 167 100 355 208 l343 197
265 -153 c146 -84 265 -155 265 -158 0 -5 -78 -52 -170 -103 -30 -17 -83 -47
-118 -68 l-62 -38 -90 51 c-49 28 -87 55 -84 60 3 4 39 27 80 49 41 22 74 44
74 49 0 4 -36 28 -80 53 l-79 45 -151 -86 c-83 -48 -159 -91 -170 -97 -11 -5
-20 -13 -20 -16 0 -7 337 -206 462 -273 l56 -31 39 21 c21 12 162 93 313 181
152 88 293 169 313 180 44 22 43 23 -43 70 -30 17 -223 128 -428 247 -205 119
-373 216 -375 215 -1 0 -67 -39 -147 -86z"/>
<path d="M3430 2907 c-34 -23 -271 -161 -380 -220 -30 -17 -72 -41 -93 -54
-21 -13 -54 -33 -73 -44 -19 -10 -50 -28 -69 -39 -19 -11 -50 -29 -69 -39 -19
-11 -52 -30 -73 -43 -21 -13 -48 -28 -58 -34 -19 -11 -20 -26 -23 -518 -1
-292 2 -506 7 -506 5 0 45 21 90 47 l81 48 0 411 0 412 103 58 c56 31 138 79
182 105 44 26 103 59 130 74 28 15 65 36 83 47 l32 20 0 -310 0 -310 -92 -55
c-51 -30 -120 -70 -153 -87 -120 -66 -115 -58 -115 -166 0 -52 3 -94 6 -94 5
0 120 65 412 235 9 6 41 23 70 39 l52 29 0 509 c0 279 -3 508 -8 508 -4 0 -23
-11 -42 -23z"/>
<path d="M3029 2265 l-76 -46 -8 -90 c-3 -50 -3 -95 2 -100 4 -4 45 13 90 39
l82 47 1 98 c0 53 -3 97 -7 97 -5 0 -42 -21 -84 -45z"/>
</g>
</svg>
